PathFileType	4	(X/Y/Z)	C:\Users\dbl\Desktop\LZH\BX\Trimmed_bx_n_0_1801.trc
DataRate	CameraRate	NumFrames	NumMarkers	Units	OrigDataRate	OrigDataStartFrame	OrigNumFrames
50.00	50.00	       8	43	mm	50.00	1	       997
Frame#	Time	Top.Head			R.Acromium			L.Acromium			Sternum			R.ASIS			L.ASIS			V.Sacral			R.Thigh.Upper			R.Thigh.Front			R.Thigh.Rear			R.Knee.Lat			R.Knee.Med			R.Shank.Upper			R.Shank.Front			R.Shank.Rear			R.Ankle.Lat			R.Midfoot.Lat			R.Toe.Lat			R.Toe.Tip			R.Toe.Med			R.Ankle.Med			R.Midfoot.Sup			R.Heel			L.Thigh.Upper			L.Thigh.Front			L.Thigh.Rear			L.Knee.Lat			L.Knee.Med			L.Shank.Upper			L.Shank.Front			L.Shank.Rear			L.Ankle.Lat			L.Midfoot.Lat			L.Toe.Lat			L.Toe.Tip			L.Toe.Med			L.Ankle.Med			L.Midfoot.Sup			L.Heel			origin1 front left			origin2 front right			origin 3 back right			origin 4 back leftt			
		X1	Y1	Z1	X2	Y2	Z2	X3	Y3	Z3	X4	Y4	Z4	X5	Y5	Z5	X6	Y6	Z6	X7	Y7	Z7	X8	Y8	Z8	X9	Y9	Z9	X10	Y10	Z10	X11	Y11	Z11	X12	Y12	Z12	X13	Y13	Z13	X14	Y14	Z14	X15	Y15	Z15	X16	Y16	Z16	X17	Y17	Z17	X18	Y18	Z18	X19	Y19	Z19	X20	Y20	Z20	X21	Y21	Z21	X22	Y22	Z22	X23	Y23	Z23	X24	Y24	Z24	X25	Y25	Z25	X26	Y26	Z26	X27	Y27	Z27	X28	Y28	Z28	X29	Y29	Z29	X30	Y30	Z30	X31	Y31	Z31	X32	Y32	Z32	X33	Y33	Z33	X34	Y34	Z34	X35	Y35	Z35	X36	Y36	Z36	X37	Y37	Z37	X38	Y38	Z38	X39	Y39	Z39	X40	Y40	Z40	X41	Y41	Z41	X42	Y42	Z42	X43	Y43	Z43	

1	0.000	-657.98383	264.41946	1835.80676	-651.05804	82.21376	1542.94373	-649.59747	438.53284	1529.32983	-540.19281	255.07999	1356.72534	-555.98883	126.63488	1036.98926	-520.65454	350.35712	1039.87378	-738.65381	259.40121	1056.79480	-630.38318	76.58778	833.94238	-540.67303	133.56998	815.54303	-632.12561	90.85062	723.56427	-668.42200	114.52627	604.23938	-644.71198	222.03619	561.74390	-697.73840	114.68565	538.61206	-618.42780	163.85060	524.69659	-705.00671	106.94393	487.13660	-697.27228	137.36403	213.46095	-622.19666	76.98592	167.55873	-576.44568	54.49577	162.97433	-501.45187	95.43639	161.42168	-542.66644	146.92734	162.07033	-647.42902	214.75294	218.90579	-605.96503	186.94762	167.25793	-731.58575	204.11606	169.06725	-605.57715	435.61359	854.21307	-526.82721	381.13763	815.54248	-632.41528	424.26416	741.45679	-652.00330	404.73969	606.31049	-637.44757	295.59756	569.20331	-669.11652	407.32687	559.78162	-609.77466	353.99750	534.88245	-723.17432	408.88016	496.06299	-680.64148	406.18829	214.58076	-587.15106	459.82730	164.61850	-549.10352	471.07687	159.85739	-487.52917	423.07584	167.65115	-526.48267	381.01050	177.15437	-643.94708	317.75458	207.70695	-593.99078	339.19901	170.02200	-732.39075	335.94614	162.16360	-443.88232	448.53201	146.84619	-450.59985	75.04870	143.14902	-806.43427	82.61308	140.93988	-800.08649	456.47165	144.71947	
2	0.020	-658.12012	264.45645	1835.74817	-650.93555	82.27151	1542.86707	-649.47968	438.65018	1529.35876	-540.15302	255.07536	1356.71021	-555.95984	126.67521	1036.94971	-520.59998	350.34415	1039.83801	-738.44440	259.39990	1056.72205	-630.45703	76.61141	833.86450	-540.70190	133.63289	815.52490	-632.09631	90.94138	723.52301	-668.40570	114.58719	604.15485	-644.70367	222.05821	561.69183	-697.72375	114.87254	538.49017	-618.35669	163.90369	524.77795	-705.08490	107.00916	487.10269	-697.27966	137.30954	213.49068	-622.23309	76.94576	167.59003	-576.46094	54.44165	163.04817	-501.40015	95.42608	161.42244	-542.72943	147.04820	161.98106	-647.40179	214.76166	218.88374	-605.69904	187.05461	167.43449	-731.58374	204.09888	169.15100	-605.61652	435.71262	854.28784	-526.70569	381.13013	815.51337	-632.40955	424.35309	741.47266	-652.04419	404.68906	606.23071	-637.41162	295.68237	569.09894	-669.07806	407.41559	559.74927	-609.81097	353.98462	534.84747	-723.13519	408.90219	496.07846	-680.59485	406.24216	214.65799	-587.12531	459.74628	164.51854	-549.07843	471.09015	159.89403	-487.50708	423.00366	167.73514	-526.49219	381.13052	177.08372	-643.95410	317.68338	207.77979	-594.04077	339.12766	169.85600	-732.31720	336.04547	162.21983	-443.80554	448.53540	146.68791	-450.51102	75.00555	143.21335	-806.37878	82.56882	140.92216	-800.01996	456.40274	144.67815	
3	0.040	-658.21063	264.47275	1835.68640	-650.83313	82.30428	1542.80078	-649.37592	438.72476	1529.39453	-540.10535	255.07680	1356.69592	-555.91455	126.72927	1036.91199	-520.55261	350.33548	1039.79675	-738.23755	259.42612	1056.65222	-630.50024	76.62302	833.81836	-540.71051	133.68117	815.51923	-632.08875	90.96638	723.51300	-668.36884	114.65354	604.07404	-644.67255	222.10173	561.68408	-697.70624	115.03504	538.37787	-618.30688	163.93837	524.82251	-705.12726	107.03732	487.09534	-697.27039	137.25768	213.51375	-622.26050	76.92537	167.61545	-576.48846	54.39316	163.09384	-501.37479	95.42375	161.41864	-542.77319	147.12955	161.93028	-647.38513	214.76442	218.87628	-605.54474	187.11523	167.52264	-731.59888	204.10403	169.19765	-605.61401	435.76709	854.28052	-526.63629	381.14737	815.48560	-632.43311	424.44373	741.51782	-652.07648	404.64154	606.18066	-637.38043	295.75693	569.01758	-669.04779	407.48294	559.73383	-609.82806	354.00522	534.82379	-723.11157	408.93018	496.09738	-680.57300	406.26740	214.69414	-587.12152	459.68439	164.45293	-549.06110	471.08005	159.91225	-487.49445	422.96915	167.79051	-526.48053	381.18594	177.04613	-643.96045	317.63724	207.82689	-594.04150	339.10428	169.75211	-732.26886	336.10965	162.25946	-443.77252	448.54288	146.60295	-450.44992	74.98717	143.25180	-806.33936	82.56371	140.88249	-799.98059	456.37463	144.67235	
4	0.060	-658.25415	264.47455	1835.63477	-650.75958	82.30487	1542.75330	-649.28632	438.74744	1529.44092	-540.04218	255.08450	1356.67065	-555.84845	126.78815	1036.88037	-520.51746	350.33603	1039.75745	-738.06000	259.48447	1056.61609	-630.50208	76.62569	833.81030	-540.68616	133.70038	815.53015	-632.09363	90.93764	723.53394	-668.32623	114.70329	604.02350	-644.60748	222.16562	561.71155	-697.69366	115.16420	538.26331	-618.28467	163.95171	524.82990	-705.13135	107.03449	487.10849	-697.24133	137.21358	213.53516	-622.27185	76.93166	167.62825	-576.52417	54.34821	163.10573	-501.38339	95.42954	161.40675	-542.79504	147.16081	161.91930	-647.37836	214.75819	218.89055	-605.47296	187.13629	167.53058	-731.62445	204.12036	169.19400	-605.57440	435.78568	854.21765	-526.61127	381.18439	815.45734	-632.46948	424.51080	741.56128	-652.09320	404.62549	606.17328	-637.34351	295.81458	568.96924	-669.02631	407.52689	559.73901	-609.81818	354.05276	534.81830	-723.09906	408.96252	496.10452	-680.57990	406.25940	214.68271	-587.14203	459.65112	164.43515	-549.06134	471.05026	159.90222	-487.49454	422.97684	167.79852	-526.44977	381.17001	177.05371	-643.94763	317.61871	207.84824	-593.99335	339.14697	169.73753	-732.25385	336.13504	162.27988	-443.78604	448.55396	146.60205	-450.42700	74.99277	143.25386	-806.32037	82.60208	140.83827	-799.97217	456.38791	144.70343	
5	0.080	-658.28198	264.47623	1835.61218	-650.70465	82.28949	1542.72791	-649.20221	438.74109	1529.49060	-539.96234	255.09715	1356.62390	-555.77179	126.83437	1036.85791	-520.49744	350.34891	1039.72705	-737.94092	259.55695	1056.63013	-630.46808	76.63621	833.82391	-540.62897	133.68568	815.54803	-632.08551	90.91170	723.56921	-668.29443	114.71706	604.02386	-644.51508	222.24034	561.73676	-697.69305	115.24403	538.15747	-618.28180	163.95267	524.82208	-705.11908	107.03269	487.11609	-697.20850	137.18800	213.56100	-622.26984	76.95435	167.63011	-576.55237	54.31291	163.09418	-501.40991	95.43978	161.39534	-542.80151	147.15550	161.92424	-647.37488	214.74460	218.92268	-605.42975	187.12617	167.49184	-731.63892	204.12950	169.16083	-605.52179	435.79791	854.17175	-526.58655	381.21884	815.42841	-632.47870	424.52917	741.55347	-652.09180	404.67175	606.21436	-637.28705	295.84222	568.95898	-669.00916	407.55905	559.75781	-609.78931	354.08472	534.83075	-723.08234	408.99039	496.09366	-680.59644	406.24033	214.65536	-587.16858	459.64188	164.45198	-549.06927	471.02609	159.87689	-487.50656	423.00320	167.76662	-526.42133	381.12741	177.09088	-643.91711	317.61560	207.85611	-593.94769	339.22571	169.76079	-732.26239	336.14087	162.28900	-443.81030	448.56570	146.63885	-450.42700	75.00737	143.23167	-806.31458	82.64661	140.82527	-799.97662	456.40866	144.73460	
6	0.100	-658.30695	264.47424	1835.62195	-650.63818	82.28056	1542.71863	-649.12109	438.73358	1529.52771	-539.86682	255.11633	1356.57080	-555.69684	126.86364	1036.84143	-520.48853	350.37381	1039.70544	-737.87762	259.62585	1056.67554	-630.40387	76.66349	833.84210	-540.55139	133.65349	815.55334	-632.05206	90.91753	723.61096	-668.26440	114.70544	604.06329	-644.41852	222.31393	561.74152	-697.69800	115.27326	538.08441	-618.28638	163.95024	524.81433	-705.10925	107.04448	487.10889	-697.18420	137.19460	213.58691	-622.26587	76.97443	167.63728	-576.56537	54.30111	163.06978	-501.42957	95.44780	161.39302	-542.80096	147.13771	161.92256	-647.37231	214.73068	218.95602	-605.41675	187.08833	167.43752	-731.63190	204.13773	169.13133	-605.46497	435.82175	854.16827	-526.54181	381.25629	815.40533	-632.44885	424.51318	741.49896	-652.08130	404.76611	606.29083	-637.21802	295.83249	568.97284	-668.99542	407.58356	559.77881	-609.75494	354.07617	534.84741	-723.05859	409.00540	496.07974	-680.59955	406.23676	214.65021	-587.18536	459.64642	164.47401	-549.06335	471.02686	159.86700	-487.53348	423.02643	167.72565	-526.41022	381.09824	177.12839	-643.89319	317.61667	207.85808	-593.95477	339.29175	169.73047	-732.27460	336.14297	162.29364	-443.81351	448.57779	146.66011	-450.43060	75.01762	143.20801	-806.31390	82.65007	140.85709	-799.97351	456.40683	144.72668	
7	0.120	-658.31317	264.45975	1835.64807	-650.52979	82.28255	1542.71155	-649.04974	438.73642	1529.54346	-539.75049	255.13194	1356.54529	-555.62732	126.88557	1036.82629	-520.47754	350.40656	1039.69312	-737.83429	259.68857	1056.72473	-630.31592	76.69099	833.86249	-540.46936	133.62433	815.53632	-631.99768	90.94701	723.65912	-668.22614	114.69067	604.10809	-644.35559	222.36131	561.72174	-697.68408	115.28837	538.04877	-618.28882	163.94804	524.81000	-705.10107	107.05500	487.10574	-697.16675	137.23119	213.60490	-622.26892	76.97794	167.66016	-576.57092	54.31432	163.04189	-501.43280	95.44472	161.39432	-542.80054	147.13144	161.90842	-647.37164	214.72321	218.97383	-605.43140	187.04961	167.41650	-731.61090	204.15776	169.11404	-605.39954	435.86234	854.18817	-526.48450	381.32700	815.39502	-632.39606	424.48941	741.44226	-652.07141	404.85287	606.35406	-637.16077	295.81711	568.96796	-668.98615	407.59836	559.79486	-609.72137	354.05298	534.85480	-723.03894	409.00665	496.07529	-680.58490	406.25363	214.67442	-587.18872	459.65729	164.47865	-549.05090	471.05270	159.88318	-487.57855	423.03369	167.69919	-526.41333	381.08792	177.14610	-643.87689	317.61505	207.85977	-594.01270	339.31555	169.62680	-732.27582	336.14511	162.29590	-443.79953	448.59067	146.64850	-450.43866	75.01678	143.19754	-806.31152	82.60577	140.90857	-799.95685	456.38489	144.67894	
8	0.140	-658.29614	264.43292	1835.67004	-650.38025	82.28032	1542.69666	-648.99377	438.74631	1529.54431	-539.60925	255.12073	1356.55811	-555.55969	126.91788	1036.81812	-520.45313	350.43958	1039.69116	-737.76819	259.74429	1056.76160	-630.22076	76.69481	833.89069	-540.39917	133.60431	815.50806	-631.93158	90.98940	723.70380	-668.17389	114.67896	604.12952	-644.34406	222.37502	561.68170	-697.62445	115.31911	538.05542	-618.28247	163.94485	524.80640	-705.07703	107.05113	487.12921	-697.16461	137.26820	213.61154	-622.27649	76.96629	167.68365	-576.57819	54.34275	163.01999	-501.43130	95.42954	161.39362	-542.79694	147.13895	161.89360	-647.37067	214.72226	218.97502	-605.47681	187.01453	167.42136	-731.59015	204.18849	169.10179	-605.32208	435.91278	854.20868	-526.42151	381.42572	815.39105	-632.32867	424.45660	741.40491	-652.05695	404.88794	606.35596	-637.13202	295.84964	568.91479	-668.97754	407.60721	559.80804	-609.68866	354.05292	534.85443	-723.03278	408.99677	496.08380	-680.56598	406.27548	214.70578	-587.18091	459.66254	164.46480	-549.05981	471.08859	159.90233	-487.63034	423.01843	167.68803	-526.42023	381.08789	177.13672	-643.85272	317.60895	207.86368	-594.07623	339.28464	169.53259	-732.26764	336.14520	162.29526	-443.79132	448.60144	146.63507	-450.45346	75.00221	143.19884	-806.30194	82.55494	140.93329	-799.93860	456.36734	144.62389	
